<mxfile host="app.diagrams.net" modified="2022-09-08T00:09:30.793Z" agent="5.0 (Windows NT 10.0; Win64; x64) AppleWebKit/537.36 (KHTML, like Gecko) Chrome/105.0.0.0 Safari/537.36" etag="83aywKVAF9TjFZ1SCxyA" version="20.3.0" type="github">
  <diagram id="prtHgNgQTEPvFCAcTncT" name="Page-1">
    <mxGraphModel dx="1221" dy="644" grid="1" gridSize="10" guides="1" tooltips="1" connect="1" arrows="1" fold="1" page="1" pageScale="1" pageWidth="1169" pageHeight="827" math="0" shadow="0">
      <root>
        <mxCell id="0" />
        <mxCell id="1" parent="0" />
        <mxCell id="hJUtPRmmATnRkOim40vj-9" style="edgeStyle=orthogonalEdgeStyle;rounded=0;orthogonalLoop=1;jettySize=auto;html=1;exitX=1;exitY=0.5;exitDx=0;exitDy=0;" edge="1" parent="1" source="hJUtPRmmATnRkOim40vj-2" target="hJUtPRmmATnRkOim40vj-4">
          <mxGeometry relative="1" as="geometry" />
        </mxCell>
        <mxCell id="hJUtPRmmATnRkOim40vj-2" value="회원가입 html" style="rounded=1;whiteSpace=wrap;html=1;" vertex="1" parent="1">
          <mxGeometry x="70" y="330" width="120" height="60" as="geometry" />
        </mxCell>
        <mxCell id="hJUtPRmmATnRkOim40vj-10" style="edgeStyle=orthogonalEdgeStyle;rounded=0;orthogonalLoop=1;jettySize=auto;html=1;exitX=1;exitY=0.5;exitDx=0;exitDy=0;entryX=0;entryY=0.5;entryDx=0;entryDy=0;" edge="1" parent="1" source="hJUtPRmmATnRkOim40vj-3" target="hJUtPRmmATnRkOim40vj-5">
          <mxGeometry relative="1" as="geometry" />
        </mxCell>
        <mxCell id="hJUtPRmmATnRkOim40vj-3" value="회원탈퇴 html" style="rounded=1;whiteSpace=wrap;html=1;" vertex="1" parent="1">
          <mxGeometry x="70" y="600" width="120" height="60" as="geometry" />
        </mxCell>
        <mxCell id="hJUtPRmmATnRkOim40vj-4" value="회원가입 jsp" style="rounded=1;whiteSpace=wrap;html=1;" vertex="1" parent="1">
          <mxGeometry x="320" y="330" width="120" height="60" as="geometry" />
        </mxCell>
        <mxCell id="hJUtPRmmATnRkOim40vj-5" value="회원탈퇴 jsp" style="rounded=1;whiteSpace=wrap;html=1;" vertex="1" parent="1">
          <mxGeometry x="320" y="600" width="120" height="60" as="geometry" />
        </mxCell>
        <mxCell id="hJUtPRmmATnRkOim40vj-6" value="로그인 jsp" style="rounded=1;whiteSpace=wrap;html=1;" vertex="1" parent="1">
          <mxGeometry x="320" y="460" width="120" height="60" as="geometry" />
        </mxCell>
        <mxCell id="hJUtPRmmATnRkOim40vj-12" style="edgeStyle=orthogonalEdgeStyle;rounded=0;orthogonalLoop=1;jettySize=auto;html=1;exitX=1;exitY=0.5;exitDx=0;exitDy=0;entryX=0;entryY=0.5;entryDx=0;entryDy=0;" edge="1" parent="1" source="hJUtPRmmATnRkOim40vj-11" target="hJUtPRmmATnRkOim40vj-6">
          <mxGeometry relative="1" as="geometry" />
        </mxCell>
        <mxCell id="hJUtPRmmATnRkOim40vj-13" value="" style="edgeStyle=orthogonalEdgeStyle;rounded=0;orthogonalLoop=1;jettySize=auto;html=1;" edge="1" parent="1" source="hJUtPRmmATnRkOim40vj-11" target="hJUtPRmmATnRkOim40vj-2">
          <mxGeometry relative="1" as="geometry" />
        </mxCell>
        <mxCell id="hJUtPRmmATnRkOim40vj-14" value="" style="edgeStyle=orthogonalEdgeStyle;rounded=0;orthogonalLoop=1;jettySize=auto;html=1;" edge="1" parent="1" source="hJUtPRmmATnRkOim40vj-11" target="hJUtPRmmATnRkOim40vj-3">
          <mxGeometry relative="1" as="geometry" />
        </mxCell>
        <mxCell id="hJUtPRmmATnRkOim40vj-11" value="로그인 html" style="rounded=1;whiteSpace=wrap;html=1;" vertex="1" parent="1">
          <mxGeometry x="70" y="460" width="120" height="60" as="geometry" />
        </mxCell>
        <mxCell id="hJUtPRmmATnRkOim40vj-15" value="user&lt;br&gt;DB" style="shape=cylinder3;whiteSpace=wrap;html=1;boundedLbl=1;backgroundOutline=1;size=15;" vertex="1" parent="1">
          <mxGeometry x="570" y="450" width="60" height="80" as="geometry" />
        </mxCell>
        <mxCell id="hJUtPRmmATnRkOim40vj-19" value="" style="endArrow=classic;startArrow=classic;html=1;rounded=0;exitX=0.5;exitY=0;exitDx=0;exitDy=0;exitPerimeter=0;entryX=1;entryY=0.5;entryDx=0;entryDy=0;" edge="1" parent="1" source="hJUtPRmmATnRkOim40vj-15" target="hJUtPRmmATnRkOim40vj-4">
          <mxGeometry width="50" height="50" relative="1" as="geometry">
            <mxPoint x="600" y="370" as="sourcePoint" />
            <mxPoint x="440" y="370" as="targetPoint" />
            <Array as="points">
              <mxPoint x="600" y="360" />
            </Array>
          </mxGeometry>
        </mxCell>
        <mxCell id="hJUtPRmmATnRkOim40vj-20" value="" style="endArrow=classic;startArrow=classic;html=1;rounded=0;exitX=0.5;exitY=1;exitDx=0;exitDy=0;exitPerimeter=0;entryX=1;entryY=0.5;entryDx=0;entryDy=0;" edge="1" parent="1" source="hJUtPRmmATnRkOim40vj-15" target="hJUtPRmmATnRkOim40vj-5">
          <mxGeometry width="50" height="50" relative="1" as="geometry">
            <mxPoint x="610" y="460" as="sourcePoint" />
            <mxPoint x="450" y="380" as="targetPoint" />
            <Array as="points">
              <mxPoint x="600" y="630" />
            </Array>
          </mxGeometry>
        </mxCell>
        <mxCell id="hJUtPRmmATnRkOim40vj-21" value="" style="endArrow=classic;startArrow=classic;html=1;rounded=0;exitX=1;exitY=0.5;exitDx=0;exitDy=0;entryX=0;entryY=0.5;entryDx=0;entryDy=0;entryPerimeter=0;" edge="1" parent="1" source="hJUtPRmmATnRkOim40vj-6" target="hJUtPRmmATnRkOim40vj-15">
          <mxGeometry width="50" height="50" relative="1" as="geometry">
            <mxPoint x="390" y="420" as="sourcePoint" />
            <mxPoint x="440" y="370" as="targetPoint" />
          </mxGeometry>
        </mxCell>
      </root>
    </mxGraphModel>
  </diagram>
</mxfile>
